<svg width="50" height="50" viewBox="0 0 50 50" fill="none" xmlns="http://www.w3.org/2000/svg">
<g clip-path="url(#clip0_74_31)">
<rect width="50" height="50" rx="24.5" fill="url(#paint0_linear_74_31)"/>
<path d="M15.7676 25.8601C14.5835 24.676 12.6546 24.676 11.4679 25.8601C10.8938 26.4341 10.5761 27.1977 10.5761 28.0106C10.5761 28.8223 10.8938 29.5858 11.4679 30.1598L13.5023 32.1942L10.0729 35.6249C8.88749 36.809 8.88749 38.7392 10.0716 39.9246C10.6456 40.4986 11.4092 40.8163 12.2208 40.8163H12.2221C13.0338 40.8163 13.7973 40.4986 14.3714 39.9246L17.8007 36.4953L19.8351 38.5297C20.4278 39.1224 21.2074 39.4201 21.9857 39.4201C22.7639 39.4201 23.5422 39.1224 24.1349 38.5297C25.3203 37.3456 25.3203 35.4154 24.1349 34.23L15.765 25.8588L15.7676 25.8601ZM12.8628 38.4148C12.692 38.5856 12.465 38.6804 12.2221 38.6804C11.9804 38.6804 11.7535 38.5856 11.5826 38.4148C11.2302 38.061 11.2302 37.4884 11.5826 37.1359L15.012 33.7052L16.2922 34.9854L12.8628 38.4148ZM22.6277 37.0198C22.2726 37.3736 21.6985 37.3722 21.3475 37.0198L12.9776 28.65C12.8067 28.4791 12.712 28.2509 12.712 28.0106C12.712 27.769 12.8067 27.5407 12.9776 27.3698C13.1538 27.1936 13.3861 27.1055 13.617 27.1055C13.848 27.1055 14.0803 27.1936 14.2565 27.3698L22.6263 35.741C22.9787 36.0948 22.9787 36.6674 22.6263 37.0198L22.6277 37.0198ZM39.7959 11.2707V16.8506C39.7959 17.1349 39.6838 17.4059 39.4835 17.6061L24.7567 32.3329L23.2469 30.8231L37.6614 16.41V12.34H33.5913L19.1768 26.753L17.667 25.2432L32.3925 10.5165C32.5927 10.3162 32.8637 10.2041 33.148 10.2041H38.7279C39.318 10.2041 39.7959 10.682 39.7959 11.272L39.7959 11.2707Z" fill="#473B49"/>
</g>
<defs>
<linearGradient id="paint0_linear_74_31" x1="25" y1="0" x2="25" y2="50" gradientUnits="userSpaceOnUse">
<stop stop-color="#97E088"/>
<stop offset="0.5" stop-color="#A4E9D5"/>
<stop offset="1" stop-color="#597CDE"/>
</linearGradient>
<clipPath id="clip0_74_31">
<rect width="50" height="50" fill="white"/>
</clipPath>
</defs>
</svg>
