<svg width="488" height="89" viewBox="0 0 488 89" fill="none" xmlns="http://www.w3.org/2000/svg">
<g filter="url(#filter0_d_74_47)">
<mask id="path-1-inside-1_74_47" fill="white">
<path fill-rule="evenodd" clip-rule="evenodd" d="M69.8789 2.04086C68.3297 0.548068 65.8772 0.548065 64.328 2.04086L48.6115 17.1848H19C10.7157 17.1848 4 23.9006 4 32.1848V65.9085C4 74.1928 10.7157 80.9085 19 80.9085H469C477.284 80.9085 484 74.1928 484 65.9085V32.1848C484 23.9005 477.284 17.1848 469 17.1848H85.5954L69.8789 2.04086Z"/>
</mask>
<path fill-rule="evenodd" clip-rule="evenodd" d="M69.8789 2.04086C68.3297 0.548068 65.8772 0.548065 64.328 2.04086L48.6115 17.1848H19C10.7157 17.1848 4 23.9006 4 32.1848V65.9085C4 74.1928 10.7157 80.9085 19 80.9085H469C477.284 80.9085 484 74.1928 484 65.9085V32.1848C484 23.9005 477.284 17.1848 469 17.1848H85.5954L69.8789 2.04086Z" fill="#444357"/>
<path fill-rule="evenodd" clip-rule="evenodd" d="M69.8789 2.04086C68.3297 0.548068 65.8772 0.548065 64.328 2.04086L48.6115 17.1848H19C10.7157 17.1848 4 23.9006 4 32.1848V65.9085C4 74.1928 10.7157 80.9085 19 80.9085H469C477.284 80.9085 484 74.1928 484 65.9085V32.1848C484 23.9005 477.284 17.1848 469 17.1848H85.5954L69.8789 2.04086Z" fill="url(#paint0_radial_74_47)" fill-opacity="0.3"/>
<path d="M64.328 2.04086L65.0219 2.76096L65.0219 2.76096L64.328 2.04086ZM69.8789 2.04086L70.5728 1.32076L70.5728 1.32076L69.8789 2.04086ZM48.6115 17.1848V18.1848H49.0149L49.3053 17.9049L48.6115 17.1848ZM85.5954 17.1848L84.9016 17.9049L85.192 18.1848H85.5954V17.1848ZM65.0219 2.76096C66.1838 1.64137 68.0231 1.64137 69.1851 2.76096L70.5728 1.32076C68.6363 -0.54523 65.5707 -0.545236 63.6341 1.32076L65.0219 2.76096ZM49.3053 17.9049L65.0219 2.76096L63.6341 1.32076L47.9176 16.4647L49.3053 17.9049ZM19 18.1848H48.6115V16.1848H19V18.1848ZM5 32.1848C5 24.4528 11.268 18.1848 19 18.1848V16.1848C10.1634 16.1848 3 23.3483 3 32.1848H5ZM5 65.9085V32.1848H3V65.9085H5ZM19 79.9085C11.268 79.9085 5 73.6405 5 65.9085H3C3 74.7451 10.1634 81.9085 19 81.9085V79.9085ZM469 79.9085H19V81.9085H469V79.9085ZM483 65.9085C483 73.6405 476.732 79.9085 469 79.9085V81.9085C477.837 81.9085 485 74.745 485 65.9085H483ZM483 32.1848V65.9085H485V32.1848H483ZM469 18.1848C476.732 18.1848 483 24.4528 483 32.1848H485C485 23.3483 477.837 16.1848 469 16.1848V18.1848ZM85.5954 18.1848H469V16.1848H85.5954V18.1848ZM69.1851 2.76096L84.9016 17.9049L86.2893 16.4647L70.5728 1.32076L69.1851 2.76096Z" fill="url(#paint1_linear_74_47)" mask="url(#path-1-inside-1_74_47)"/>
</g>
<defs>
<filter id="filter0_d_74_47" x="0" y="0.921265" width="488" height="87.9872" filterUnits="userSpaceOnUse" color-interpolation-filters="sRGB">
<feFlood flood-opacity="0" result="BackgroundImageFix"/>
<feColorMatrix in="SourceAlpha" type="matrix" values="0 0 0 0 0 0 0 0 0 0 0 0 0 0 0 0 0 0 127 0" result="hardAlpha"/>
<feOffset dy="4"/>
<feGaussianBlur stdDeviation="2"/>
<feComposite in2="hardAlpha" operator="out"/>
<feColorMatrix type="matrix" values="0 0 0 0 0 0 0 0 0 0 0 0 0 0 0 0 0 0 0.25 0"/>
<feBlend mode="normal" in2="BackgroundImageFix" result="effect1_dropShadow_74_47"/>
<feBlend mode="normal" in="SourceGraphic" in2="effect1_dropShadow_74_47" result="shape"/>
</filter>
<radialGradient id="paint0_radial_74_47" cx="0" cy="0" r="1" gradientUnits="userSpaceOnUse" gradientTransform="translate(52.1035 17.6275) rotate(32.8722) scale(224.785 237.115)">
<stop stop-color="#E9AAA4"/>
<stop offset="1" stop-color="#E9AAA4" stop-opacity="0"/>
</radialGradient>
<linearGradient id="paint1_linear_74_47" x1="213.692" y1="0.92126" x2="251.123" y2="109.14" gradientUnits="userSpaceOnUse">
<stop stop-color="#B8CBFF"/>
<stop offset="1" stop-color="#6E7A99" stop-opacity="0"/>
</linearGradient>
</defs>
</svg>
