<svg width="50" height="50" viewBox="0 0 50 50" fill="none" xmlns="http://www.w3.org/2000/svg">
<g clip-path="url(#clip0_74_67)">
<rect width="50" height="50" rx="24.5" fill="url(#paint0_linear_74_67)"/>
<path d="M25.5001 43C25.276 43 25.0564 42.9357 24.8678 42.8131L24.8663 42.8116C24.8132 42.7772 24.7631 42.7384 24.7159 42.6965L24.7145 42.695C24.5641 42.5694 8.41839 23.0788 8.28142 22.9307V22.9322C8.16203 22.7887 8.07655 22.6183 8.0338 22.4359V22.4329L8.03233 22.4299L8.03085 22.4314C8.02054 22.3806 8.01169 22.3297 8.00727 22.2789V22.2729L8.0058 22.2684V22.2595H8.00432C7.98811 22.0666 8.01759 21.8723 8.09129 21.6944L11.3546 13.737C11.5373 13.2915 11.9677 13.0015 12.4438 13H38.5561C39.0322 13 39.4611 13.2915 39.6439 13.737L42.9086 21.6974C42.9764 21.8634 43.0074 22.0413 42.9985 22.2207V22.2222L42.997 22.2252V22.2281V22.2267C42.9926 22.3119 42.9779 22.3986 42.9558 22.4823L42.9528 22.4883V22.4868C42.916 22.6228 42.8541 22.7514 42.7715 22.865H42.7701V22.8665C42.5873 23.0817 26.4917 42.4873 26.3061 42.6771L26.3046 42.6786V42.6771C26.2427 42.7354 26.1749 42.7877 26.1012 42.8311C25.9243 42.9387 25.7209 42.997 25.5131 43L25.5001 43ZM21.2329 23.3524L25.5001 37.6721L29.7684 23.3539L21.2329 23.3524ZM11.7155 23.3524L22.7154 36.5956L18.7682 23.3524H11.7155ZM32.2328 23.3524L28.284 36.5956L39.2839 23.3524H32.2328ZM32.2328 20.9605H40.0521L37.769 15.3919H30.5718L32.2328 20.9605ZM21.2344 20.9605H29.7699L28.1088 15.3919H22.8926L21.2344 20.9605ZM10.9492 20.9605H18.7712L20.4279 15.3919H13.2292L10.9492 20.9605Z" fill="#483C49"/>
</g>
<defs>
<linearGradient id="paint0_linear_74_67" x1="25" y1="0" x2="25" y2="50" gradientUnits="userSpaceOnUse">
<stop stop-color="#FFCEEF"/>
<stop offset="0.5" stop-color="#B788FF"/>
<stop offset="1" stop-color="#89A8FF"/>
</linearGradient>
<clipPath id="clip0_74_67">
<rect width="50" height="50" fill="white"/>
</clipPath>
</defs>
</svg>
